# xmcd
#
# Track frame offsets: 
#        197
#        12310
#        24097
#        36722
#        49535
#        62010
#        73795
#        87297
#        100370
#        114120
#        127150
#        140802
#        151645
#        164050
#        175812
#        188712
#        200215
#        213527
#        226830
#
# Disc length: 3221 seconds
#
# Revision: 13
# Processed by: cddbd v1.5.2PL0 Copyright (c) Steve Scherf et al.
# Submitted via: ExactAudioCopyFreeDBPlugin 1.0
#
DISCID=0f0c9313
DTITLE=Various Artist - Phil Spector:  Back to Mono (1958-1969) [box 
DTITLE=set]
DYEAR=1991
DGENRE=Rhythm and Blues
TTITLE0=The Ronettes - Be My Baby
TTITLE1=The Crystals - Then He Kissed Me
TTITLE2=Darlene Love - A Fine, Fine Boy
TTITLE3=The Ronettes - Baby, I Love You
TTITLE4=The Ronettes - I Wonder
TTITLE5=The Crystals - Girls Can Tell
TTITLE6=The Crystals - Little Boy
TTITLE7=The Treasures - Hold Me Tight
TTITLE8=The Ronettes - (The Best Part Of) Breakin' Up
TTITLE9=The Ronettes - Soldier Baby of Mine
TTITLE10=Darlene Love - Strange Love
TTITLE11=Darlene Love - Stumble and Fall
TTITLE12=The Ronettes - When I Saw You
TTITLE13=Veronica - So Young
TTITLE14=The Ronettes - Do I Love You?
TTITLE15=The Ronettes - Keep on Dancing
TTITLE16=The Ronettes - You Baby
TTITLE17=The Ronettes - Woman in Love (With You)
TTITLE18=The Ronettes - Walking in the Rain
EXTD=
EXTT0=
EXTT1=
EXTT2=
EXTT3=
EXTT4=
EXTT5=
EXTT6=
EXTT7=
EXTT8=
EXTT9=
EXTT10=
EXTT11=
EXTT12=
EXTT13=
EXTT14=
EXTT15=
EXTT16=
EXTT17=
EXTT18=
PLAYORDER=
